<?xml version="1.0" encoding="utf-8"?>
<!-- Generator: Adobe Illustrator 27.9.1, SVG Export Plug-In . SVG Version: 6.00 Build 0)  -->
<svg version="1.1" id="Lag_1" xmlns="http://www.w3.org/2000/svg" xmlns:xlink="http://www.w3.org/1999/xlink" x="0px" y="0px"
	 viewBox="0 0 1366 768" style="enable-background:new 0 0 1366 768;" xml:space="preserve">
<style type="text/css">
	.st0{fill:#FFFFFF;}
	.st1{fill:#FAD001;}
	.st2{fill:#BE5500;}
</style>
<g>
	<path class="st0" d="M1119,427.98C1104.39,626,992.1,764.52,819.94,764.52c-172.16,0-332.19-108.93-332.19-292.65
		c0-183.72,68.45-471.17,240.62-471.17C900.53,0.71,1084.91,190.93,1119,427.98z"/>
</g>
<circle class="st1" cx="803.38" cy="470.99" r="202"/>
<path class="st2" d="M770.31,452.05V438.8l34.09-32.19c2.69-2.44,4.67-4.63,5.93-6.57c1.26-1.93,2.11-3.7,2.52-5.3
	c0.51-1.6,0.76-3.07,0.76-4.42c0-3.53-1.22-6.23-3.66-8.08c-2.36-1.93-5.85-2.9-10.48-2.9c-3.7,0-7.16,0.72-10.35,2.15
	c-3.12,1.43-5.77,3.66-7.95,6.69l-14.9-9.59c3.37-5.05,8.08-9.05,14.14-11.99c6.06-2.94,13.04-4.42,20.96-4.42
	c6.57,0,12.29,1.1,17.17,3.28c4.96,2.11,8.8,5.09,11.49,8.96c2.78,3.87,4.17,8.5,4.17,13.89c0,2.86-0.38,5.72-1.14,8.58
	c-0.67,2.78-2.11,5.72-4.29,8.84c-2.11,3.12-5.22,6.61-9.34,10.48l-28.28,26.64l-3.91-7.45h49.87v16.66H770.31z"/>
<path class="st2" d="M727.5,571.99V529.7l2.02,2.15h-12.44v-4.04h14.96v44.19H727.5z M741.79,571.99v-3.22l18.37-17.99
	c1.68-1.64,2.94-3.07,3.79-4.29c0.84-1.26,1.41-2.44,1.7-3.54c0.29-1.1,0.44-2.12,0.44-3.09c0-2.57-0.88-4.59-2.65-6.06
	c-1.73-1.47-4.29-2.21-7.7-2.21c-2.61,0-4.92,0.4-6.94,1.2c-1.98,0.8-3.68,2.04-5.11,3.72l-3.22-2.78c1.73-2.02,3.94-3.58,6.63-4.67
	s5.7-1.64,9.03-1.64c2.99,0,5.58,0.48,7.76,1.45c2.19,0.92,3.87,2.29,5.05,4.1c1.22,1.81,1.83,3.94,1.83,6.38
	c0,1.43-0.21,2.84-0.63,4.23c-0.38,1.39-1.1,2.86-2.15,4.42c-1.01,1.52-2.5,3.24-4.48,5.18l-16.85,16.54l-1.26-1.77h27.4v4.04
	H741.79z M792.44,572.37c-3.16,0-6.16-0.5-9.03-1.52c-2.86-1.05-5.13-2.44-6.82-4.17l2.21-3.6c1.39,1.47,3.28,2.69,5.68,3.66
	c2.44,0.97,5.07,1.45,7.89,1.45c3.75,0,6.59-0.82,8.52-2.46c1.98-1.68,2.97-3.87,2.97-6.57c0-1.89-0.46-3.51-1.39-4.86
	c-0.88-1.39-2.4-2.46-4.54-3.22s-5.09-1.14-8.84-1.14h-9.41l2.27-22.16h24.18v4.04h-22.35l2.34-2.21l-1.96,18.56l-2.34-2.27h8.27
	c4.46,0,8.04,0.55,10.73,1.64c2.7,1.1,4.63,2.63,5.81,4.61c1.22,1.93,1.83,4.21,1.83,6.82c0,2.48-0.59,4.76-1.77,6.82
	c-1.18,2.02-2.94,3.62-5.3,4.8C799.04,571.78,796.06,572.37,792.44,572.37z M837.26,563.41l0.13-5.74l20.64-18.81h5.49l-14.58,13.95
	l-2.53,2.15L837.26,563.41z M833.73,571.99v-46.84h4.48v46.84H833.73z M859.42,571.99l-13.82-17.23l2.9-3.47l16.41,20.71H859.42z
	 M871.15,571.99v-33.14h4.29v9.03L875,546.3c0.93-2.53,2.48-4.44,4.67-5.74c2.19-1.35,4.9-2.02,8.14-2.02v4.36
	c-0.17,0-0.33,0-0.51,0c-0.17-0.04-0.33-0.06-0.5-0.06c-3.49,0-6.23,1.07-8.21,3.22c-1.98,2.11-2.97,5.11-2.97,9.03v16.92H871.15z"
	/>
</svg>
