<?xml version="1.0" encoding="utf-8"?>
<!-- Generator: Adobe Illustrator 27.9.1, SVG Export Plug-In . SVG Version: 6.00 Build 0)  -->
<svg version="1.1" id="Lag_1" xmlns="http://www.w3.org/2000/svg" xmlns:xlink="http://www.w3.org/1999/xlink" x="0px" y="0px"
	 viewBox="0 0 1366 768" style="enable-background:new 0 0 1366 768;" xml:space="preserve">
<style type="text/css">
	.st0{fill:#FFFFFF;}
	.st1{fill:#FAD001;}
	.st2{fill:#BE5500;}
</style>
<g>
	<path class="st0" d="M1212.5,341.75C1197.92,144.19,1085.9,6,914.15,6c-171.75,0-331.4,108.68-331.4,291.95
		C582.75,481.23,651.04,768,822.8,768C994.55,768,1178.49,578.23,1212.5,341.75z"/>
</g>
<circle class="st1" cx="897.63" cy="330.32" r="201.52"/>
<path class="st2" d="M893.86,319.24c-6.13,0-12.22-0.8-18.26-2.39c-6.05-1.68-11.17-4.03-15.37-7.05l7.93-15.62
	c3.36,2.43,7.26,4.37,11.71,5.79c4.45,1.43,8.94,2.14,13.48,2.14c5.12,0,9.15-1.01,12.09-3.02c2.94-2.02,4.41-4.79,4.41-8.31
	c0-3.36-1.3-6-3.9-7.93c-2.6-1.93-6.8-2.9-12.6-2.9h-9.32v-13.48l24.56-27.84l2.27,7.31h-46.22v-16.37h61.72v13.22l-24.43,27.84
	l-10.33-5.92h5.92c10.83,0,19.02,2.43,24.56,7.31c5.54,4.87,8.31,11.12,8.31,18.77c0,4.95-1.3,9.61-3.9,13.98
	c-2.6,4.28-6.59,7.77-11.97,10.45C909.14,317.89,902.26,319.24,893.86,319.24z"/>
<path class="st2" d="M821.32,434.23v-42.19l2.02,2.14h-12.41v-4.03h14.93v44.08H821.32z M853.15,434.61c-3.53,0-6.57-0.5-9.13-1.51
	c-2.52-1.01-4.47-2.46-5.86-4.35c-1.34-1.93-2.02-4.2-2.02-6.8c0-2.52,0.65-4.66,1.95-6.42c1.34-1.8,3.27-3.19,5.79-4.16
	c2.56-0.97,5.65-1.45,9.26-1.45c3.57,0,6.63,0.48,9.19,1.45c2.56,0.97,4.51,2.35,5.86,4.16c1.39,1.76,2.08,3.9,2.08,6.42
	c0,2.6-0.69,4.87-2.08,6.8c-1.39,1.89-3.36,3.34-5.92,4.35C859.71,434.11,856.67,434.61,853.15,434.61z M853.15,430.77
	c3.9,0,6.95-0.8,9.13-2.39c2.22-1.6,3.34-3.76,3.34-6.49s-1.11-4.87-3.34-6.42c-2.19-1.6-5.23-2.39-9.13-2.39
	c-3.9,0-6.95,0.8-9.13,2.39c-2.19,1.55-3.27,3.69-3.27,6.42s1.09,4.89,3.27,6.49C846.2,429.97,849.24,430.77,853.15,430.77z
	 M853.15,412.5c-3.27,0-6.07-0.44-8.38-1.32c-2.27-0.88-4.01-2.14-5.23-3.78c-1.22-1.68-1.83-3.67-1.83-5.98
	c0-2.43,0.63-4.51,1.89-6.23c1.3-1.76,3.1-3.11,5.42-4.03c2.31-0.92,5.02-1.39,8.12-1.39c3.1,0,5.81,0.46,8.12,1.39
	c2.35,0.92,4.18,2.27,5.48,4.03c1.3,1.72,1.95,3.8,1.95,6.23c0,2.31-0.61,4.3-1.83,5.98c-1.22,1.64-3,2.9-5.35,3.78
	C859.21,412.06,856.42,412.5,853.15,412.5z M853.15,409.48c3.44,0,6.13-0.71,8.06-2.14c1.93-1.43,2.9-3.34,2.9-5.73
	c0-2.52-1.01-4.47-3.02-5.86c-1.97-1.43-4.62-2.14-7.93-2.14c-3.32,0-5.96,0.71-7.93,2.14c-1.97,1.39-2.96,3.32-2.96,5.79
	c0,2.43,0.94,4.37,2.83,5.79C847.02,408.77,849.7,409.48,853.15,409.48z M890.47,434.61c-3.15,0-6.15-0.5-9.01-1.51
	c-2.86-1.05-5.12-2.43-6.8-4.16l2.2-3.59c1.39,1.47,3.27,2.69,5.67,3.65c2.43,0.97,5.06,1.45,7.87,1.45c3.73,0,6.57-0.82,8.5-2.46
	c1.97-1.68,2.96-3.86,2.96-6.55c0-1.89-0.46-3.5-1.39-4.85c-0.88-1.39-2.39-2.46-4.53-3.21c-2.14-0.76-5.08-1.13-8.82-1.13h-9.38
	l2.27-22.1h24.12v4.03h-22.29l2.33-2.2l-1.95,18.51l-2.33-2.27h8.25c4.45,0,8.02,0.54,10.71,1.64c2.69,1.09,4.62,2.62,5.79,4.6
	c1.22,1.93,1.83,4.2,1.83,6.8c0,2.48-0.59,4.75-1.76,6.8c-1.18,2.02-2.94,3.61-5.29,4.79C897.06,434.02,894.08,434.61,890.47,434.61
	z M935.19,425.67l0.13-5.73l20.59-18.77h5.48l-14.55,13.92l-2.52,2.14L935.19,425.67z M931.66,434.23V387.5h4.47v46.73H931.66z
	 M957.3,434.23l-13.79-17.19l2.9-3.46l16.37,20.66H957.3z M969,434.23v-33.06h4.28v9.01l-0.44-1.57c0.92-2.52,2.47-4.43,4.66-5.73
	c2.18-1.34,4.89-2.02,8.12-2.02v4.35c-0.17,0-0.34,0-0.5,0c-0.17-0.04-0.34-0.06-0.5-0.06c-3.49,0-6.22,1.07-8.19,3.21
	c-1.97,2.1-2.96,5.1-2.96,9.01v16.88H969z"/>
</svg>
