<?xml version="1.0" encoding="utf-8"?>
<!-- Generator: Adobe Illustrator 27.9.1, SVG Export Plug-In . SVG Version: 6.00 Build 0)  -->
<svg version="1.1" id="Lag_1" xmlns="http://www.w3.org/2000/svg" xmlns:xlink="http://www.w3.org/1999/xlink" x="0px" y="0px"
	 viewBox="0 0 1366 768" style="enable-background:new 0 0 1366 768;" xml:space="preserve">
<style type="text/css">
	.st0{fill:#FFFFFF;}
	.st1{fill:#FAD001;}
	.st2{fill:#BE5500;}
</style>
<g>
	<path class="st0" d="M1000.21,429.61C985.52,628.72,872.61,768,699.5,768C526.4,768,365.5,658.47,365.5,473.75
		C365.5,289.03,434.33,0,607.43,0C780.54,0,965.93,191.26,1000.21,429.61z"/>
</g>
<circle class="st1" cx="682.85" cy="472.86" r="203.11"/>
<path class="st2" d="M639.85,435.16v-13.84l41.89-56.36h21.58l-41,56.36l-10.03-2.92h69.95v16.76H639.85z M687.71,453.82v-18.66
	l0.63-16.76v-16.63h19.42v52.05H687.71z"/>
<path class="st2" d="M591.42,574.41v-3.24l18.47-18.09c1.69-1.65,2.96-3.09,3.81-4.32c0.85-1.27,1.42-2.45,1.71-3.55
	c0.3-1.1,0.44-2.14,0.44-3.11c0-2.58-0.89-4.61-2.67-6.09c-1.74-1.48-4.32-2.22-7.74-2.22c-2.62,0-4.95,0.4-6.98,1.21
	c-1.99,0.8-3.7,2.05-5.14,3.74l-3.24-2.79c1.73-2.03,3.96-3.6,6.66-4.7c2.71-1.1,5.73-1.65,9.08-1.65c3.01,0,5.61,0.49,7.81,1.46
	c2.2,0.93,3.89,2.31,5.08,4.13c1.23,1.82,1.84,3.96,1.84,6.41c0,1.44-0.21,2.86-0.63,4.25c-0.38,1.4-1.1,2.88-2.16,4.44
	c-1.02,1.52-2.52,3.26-4.51,5.2l-16.95,16.63l-1.27-1.78h27.55v4.06H591.42z M627.5,574.41v-3.24l18.47-18.09
	c1.69-1.65,2.96-3.09,3.81-4.32c0.85-1.27,1.42-2.45,1.71-3.55c0.3-1.1,0.44-2.14,0.44-3.11c0-2.58-0.89-4.61-2.67-6.09
	c-1.73-1.48-4.32-2.22-7.74-2.22c-2.62,0-4.95,0.4-6.98,1.21c-1.99,0.8-3.7,2.05-5.14,3.74l-3.24-2.79c1.74-2.03,3.96-3.6,6.66-4.7
	c2.71-1.1,5.73-1.65,9.08-1.65c3.01,0,5.61,0.49,7.81,1.46c2.2,0.93,3.89,2.31,5.08,4.13c1.23,1.82,1.84,3.96,1.84,6.41
	c0,1.44-0.21,2.86-0.63,4.25c-0.38,1.4-1.1,2.88-2.16,4.44c-1.02,1.52-2.52,3.26-4.51,5.2l-16.95,16.63l-1.27-1.78h27.55v4.06H627.5
	z M678.43,574.79c-3.17,0-6.2-0.51-9.08-1.52c-2.88-1.06-5.16-2.45-6.85-4.19l2.22-3.62c1.4,1.48,3.3,2.71,5.71,3.68
	c2.45,0.97,5.1,1.46,7.93,1.46c3.76,0,6.62-0.83,8.57-2.48c1.99-1.69,2.98-3.89,2.98-6.6c0-1.9-0.47-3.53-1.4-4.89
	c-0.89-1.4-2.41-2.48-4.57-3.24s-5.12-1.14-8.89-1.14h-9.46l2.28-22.28h24.31v4.06h-22.47l2.35-2.22l-1.97,18.66l-2.35-2.28h8.31
	c4.48,0,8.08,0.55,10.79,1.65c2.71,1.1,4.65,2.64,5.84,4.63c1.23,1.95,1.84,4.23,1.84,6.85c0,2.5-0.59,4.78-1.78,6.85
	c-1.19,2.03-2.96,3.64-5.33,4.82C685.07,574.2,682.06,574.79,678.43,574.79z M723.5,565.78l0.13-5.78l20.76-18.91h5.52l-14.66,14.03
	l-2.54,2.16L723.5,565.78z M719.94,574.41v-47.1h4.51v47.1H719.94z M745.78,574.41l-13.9-17.33l2.92-3.49l16.5,20.82H745.78z
	 M757.57,574.41v-33.32h4.32v9.08l-0.44-1.59c0.93-2.54,2.49-4.47,4.7-5.78c2.2-1.36,4.93-2.03,8.19-2.03v4.38
	c-0.17,0-0.34,0-0.51,0c-0.17-0.04-0.34-0.06-0.51-0.06c-3.51,0-6.26,1.08-8.25,3.24c-1.99,2.12-2.98,5.14-2.98,9.08v17.01H757.57z"
	/>
</svg>
