<?xml version="1.0" encoding="utf-8"?>
<!-- Generator: Adobe Illustrator 27.9.1, SVG Export Plug-In . SVG Version: 6.00 Build 0)  -->
<svg version="1.1" id="Lag_1" xmlns="http://www.w3.org/2000/svg" xmlns:xlink="http://www.w3.org/1999/xlink" x="0px" y="0px"
	 viewBox="0 0 1366 768" style="enable-background:new 0 0 1366 768;" xml:space="preserve">
<style type="text/css">
	.st0{fill:#FFFFFF;}
	.st1{fill:#FAD001;}
	.st2{fill:#BE5500;}
</style>
<g>
	<path class="st0" d="M1001.04,337.83C986.32,138.46,873.27-1,699.94-1C526.61-1,365.5,108.67,365.5,293.64
		C365.5,478.6,434.42,768,607.75,768C781.08,768,966.71,576.49,1001.04,337.83z"/>
</g>
<circle class="st1" cx="683.27" cy="326.3" r="203.37"/>
<path class="st2" d="M680.68,315.12c-6.18,0-12.33-0.8-18.43-2.42c-6.02-1.69-11.19-4.07-15.51-7.12l8.13-15.76
	c3.39,2.46,7.29,4.41,11.69,5.85c4.49,1.44,9.02,2.16,13.6,2.16c5.17,0,9.24-1.02,12.2-3.05c2.97-2.03,4.45-4.87,4.45-8.52
	c0-2.29-0.59-4.32-1.78-6.1c-1.19-1.78-3.3-3.14-6.36-4.07c-2.96-0.93-7.16-1.4-12.58-1.4h-22.75l4.58-50.08h54.27v16.52h-46.9
	l10.68-9.41l-3.18,35.72l-10.68-9.41h18.81c8.81,0,15.89,1.23,21.23,3.69c5.42,2.37,9.36,5.63,11.82,9.79
	c2.46,4.15,3.69,8.86,3.69,14.11s-1.31,10.13-3.94,14.62c-2.62,4.41-6.69,8.01-12.2,10.8C696.1,313.76,689.15,315.12,680.68,315.12z
	"/>
<path class="st2" d="M601.52,431.55c-3.22,0-6.27-0.51-9.15-1.53c-2.84-1.06-5.13-2.46-6.86-4.19l2.22-3.62
	c1.44,1.48,3.37,2.71,5.78,3.69c2.46,0.98,5.13,1.46,8.01,1.46c3.69,0,6.5-0.8,8.45-2.42c1.99-1.61,2.99-3.77,2.99-6.48
	c0-2.71-0.98-4.87-2.92-6.48c-1.91-1.61-4.94-2.42-9.09-2.42h-3.18v-3.37l13.73-17.22l0.64,1.78h-24.79v-4.07h28.6v3.24
	l-13.73,17.22l-2.22-1.46h1.72c5.34,0,9.32,1.19,11.95,3.56c2.67,2.37,4,5.42,4,9.15c0,2.5-0.59,4.74-1.78,6.74
	c-1.19,1.99-2.99,3.56-5.4,4.7C608.11,430.97,605.12,431.55,601.52,431.55z M641.84,431.55c-3.43,0-6.48-0.89-9.15-2.67
	c-2.67-1.82-4.77-4.41-6.29-7.75c-1.53-3.39-2.29-7.46-2.29-12.2c0-4.74,0.76-8.79,2.29-12.14c1.53-3.39,3.62-5.97,6.29-7.75
	c2.67-1.82,5.72-2.73,9.15-2.73s6.48,0.91,9.15,2.73c2.67,1.78,4.77,4.36,6.29,7.75c1.57,3.35,2.35,7.39,2.35,12.14
	c0,4.74-0.78,8.81-2.35,12.2c-1.53,3.35-3.62,5.93-6.29,7.75C648.32,430.66,645.27,431.55,641.84,431.55z M641.84,427.35
	c2.62,0,4.91-0.7,6.86-2.1c1.95-1.44,3.47-3.52,4.58-6.23c1.1-2.76,1.65-6.12,1.65-10.11s-0.55-7.33-1.65-10.04
	c-1.1-2.76-2.63-4.83-4.58-6.23c-1.95-1.44-4.24-2.16-6.86-2.16c-2.54,0-4.81,0.72-6.8,2.16c-1.99,1.4-3.54,3.47-4.64,6.23
	c-1.1,2.71-1.65,6.06-1.65,10.04s0.55,7.35,1.65,10.11c1.1,2.71,2.65,4.79,4.64,6.23C637.03,426.65,639.3,427.35,641.84,427.35z
	 M683.92,431.55c-3.43,0-6.48-0.89-9.15-2.67c-2.67-1.82-4.77-4.41-6.29-7.75c-1.53-3.39-2.29-7.46-2.29-12.2
	c0-4.74,0.76-8.79,2.29-12.14c1.53-3.39,3.62-5.97,6.29-7.75c2.67-1.82,5.72-2.73,9.15-2.73s6.48,0.91,9.15,2.73
	c2.67,1.78,4.77,4.36,6.29,7.75c1.57,3.35,2.35,7.39,2.35,12.14c0,4.74-0.78,8.81-2.35,12.2c-1.53,3.35-3.62,5.93-6.29,7.75
	C690.4,430.66,687.35,431.55,683.92,431.55z M683.92,427.35c2.63,0,4.92-0.7,6.86-2.1c1.95-1.44,3.47-3.52,4.58-6.23
	c1.1-2.76,1.65-6.12,1.65-10.11s-0.55-7.33-1.65-10.04c-1.1-2.76-2.63-4.83-4.58-6.23c-1.95-1.44-4.24-2.16-6.86-2.16
	c-2.54,0-4.81,0.72-6.8,2.16c-1.99,1.4-3.54,3.47-4.64,6.23c-1.1,2.71-1.65,6.06-1.65,10.04s0.55,7.35,1.65,10.11
	c1.1,2.71,2.65,4.79,4.64,6.23C679.11,426.65,681.38,427.35,683.92,427.35z M731.45,422.52l0.13-5.78l20.78-18.94h5.53l-14.68,14.05
	l-2.54,2.16L731.45,422.52z M727.89,431.17v-47.16h4.51v47.16H727.89z M753.76,431.17l-13.92-17.35l2.92-3.5l16.52,20.85H753.76z
	 M765.56,431.17V397.8h4.32v9.09l-0.44-1.59c0.93-2.54,2.5-4.47,4.7-5.78c2.2-1.36,4.93-2.03,8.2-2.03v4.39c-0.17,0-0.34,0-0.51,0
	c-0.17-0.04-0.34-0.06-0.51-0.06c-3.52,0-6.27,1.08-8.26,3.24c-1.99,2.12-2.99,5.15-2.99,9.09v17.03H765.56z"/>
</svg>
