<?xml version="1.0" encoding="utf-8"?>
<!-- Generator: Adobe Illustrator 28.2.0, SVG Export Plug-In . SVG Version: 6.00 Build 0)  -->
<svg version="1.1" xmlns="http://www.w3.org/2000/svg" xmlns:xlink="http://www.w3.org/1999/xlink" x="0px" y="0px"
	 viewBox="0 0 100 100" style="enable-background:new 0 0 100 100;" xml:space="preserve">
<style type="text/css">
	.st0{fill:#040639;}
	.st1{fill:none;stroke:#FFFFFF;stroke-miterlimit:10;}
	.st2{fill:none;stroke:#FFFFFF;stroke-linecap:round;}
	.st3{fill:#FFFFFF;}
</style>
<g id="Layer_2">
	<path class="st0" d="M9.46-0.16h81.08c5.22,0,9.46,4.24,9.46,9.46v81.08c0,5.22-4.24,9.46-9.46,9.46H9.46
		C4.24,99.84,0,95.61,0,90.38V9.3C0,4.08,4.24-0.16,9.46-0.16z"/>
</g>
<g id="Layer_1">
	<path class="st0" d="M-249-346h60c3.87,0,7,3.13,7,7v60c0,3.87-3.13,7-7,7h-60c-3.87,0-7-3.13-7-7v-60
		C-256-342.87-252.87-346-249-346z"/>
	<path class="st1" d="M-229.52-316.99c-1.54-2.46-2.04-6.05-2.16-6.9c-0.54-4.17,2.54-8.93,7.51-10.66
		c6.48-2.24,12.2,4.34,13.91,8.19c0.03,0.05,0.08,0.18,0.14,0.33c0.94,2.24,1.72,4.08,1.48,5.84c-0.26,1.84-1.62,3.21-1.62,3.21
		s0.18-0.33,0.34-0.63c-0.42,0.86-0.86,1.71-1.28,2.58c-1.03,1.65-1.24,3.1-1.28,3.86c0,0-0.11,2.54,1.51,5.58
		c0.05,0.1,0.08,0.13,0.17,0.31c0.24,0.45,0.69,1.31,1.17,2.43c0.14,0.33,0.29,0.7,0.43,1.08c0.6,1.57,0.91,2.36,1.07,3.52
		c0.51,3.61-0.75,6.38-1.07,7.02c-1.39,2.89-3.54,4.23-4.29,4.69c-3.68,2.24-7.35,1.44-8.56,1.17c-3.2-0.71-5.39-2.5-6.42-3.52
		c-1.24-1.21-2.6-2.52-3.22-4.69c-1.17-4.17,1.21-8.76,2.14-10.54c0.89-1.71,1.67-2.6,2.14-4.69c0.2-0.93,0.59-2.03,0-3.98
		c-0.47-1.55-1.17-2.68-2.14-4.22L-229.52-316.99z"/>
	<path class="st2" d="M-231-300.68c9.66,2.53,14.5,2.48,22-0.92 M-231-292.37c9.66,2.53,14.5,2.48,22-0.92 M-226.42-309.92
		c10.08,0.92,5.5,0.92,13.75-0.92 M-231-326.54c9.66,2.53,12.67,2.48,20.17-0.92 M-231-319.15c9.66,2.53,14.5,2.48,22-0.92
		 M-216.33-333c-2.29,18.17-0.35,27.55,2.75,46.17c-4.6,2.39-7.08,2.49-11,0c2.91-19.3,2.03-27.99-0.92-46.17"/>
	<path class="st3" d="M16.59,51.4l0.7-0.03l0,0L16.59,51.4z M46.51,32.2l0.04,0.7h0L46.51,32.2z M76.44,47.14l-0.69,0.04v0
		L76.44,47.14z M52.13,66.34L52,65.66h0L52.13,66.34z M73.07,40.66l-0.55,0.43l0,0L73.07,40.66z M77.76,48.86l-0.05,0.69l0,0
		L77.76,48.86z M82.58,35.05l0.55-0.42l0,0L82.58,35.05z M70.9,37.49l0.69,0.11l0,0L70.9,37.49z M74.04,54.68l0.55,0.43l0,0
		L74.04,54.68z M66.73,61.52l0.68-0.13l0,0L66.73,61.52z M82.63,63.83l-0.54-0.44l0,0L82.63,63.83z M76.77,51.65l0.03,0.7l0,0
		L76.77,51.65z M33.59,45.38c0.38,0,0.7-0.31,0.7-0.7c0-0.38-0.31-0.7-0.7-0.7V45.38z M32.38,45.19l-0.63-0.3l0,0L32.38,45.19z
		 M32.73,48.13l0.35-0.6l0,0L32.73,48.13z M34.05,48.54l-0.04,0.7l0,0L34.05,48.54z M35.99,47.25l-0.68-0.15l0,0L35.99,47.25z
		 M35.94,45.88l-0.66,0.23l0,0L35.94,45.88z M35.33,45.11l-0.52,0.47l0,0L35.33,45.11z M34.28,44.06c-0.34-0.17-0.76-0.03-0.93,0.31
		c-0.17,0.34-0.03,0.76,0.31,0.93L34.28,44.06z M8.22-0.57h83.55v-1.39H8.22V-0.57z M100.83,8.48v83.55h1.39V8.48H100.83z
		 M91.78,101.08H8.22v1.39h83.55V101.08z M-0.83,92.03V8.48h-1.39v83.55H-0.83z M8.22,101.08c-5,0-9.05-4.05-9.05-9.05h-1.39
		c0,5.77,4.68,10.44,10.44,10.44V101.08z M100.83,92.03c0,5-4.05,9.05-9.05,9.05v1.39c5.77,0,10.44-4.68,10.44-10.44H100.83z
		 M91.78-0.57c5,0,9.05,4.05,9.05,9.05h1.39c0-5.77-4.68-10.44-10.44-10.44V-0.57z M8.22-1.97C2.46-1.97-2.22,2.71-2.22,8.48h1.39
		c0-5,4.05-9.05,9.05-9.05V-1.97z M17.28,51.37c-0.09-1.96,0.74-4.05,2.36-6.13c1.61-2.07,3.97-4.08,6.8-5.86
		c5.67-3.56,13.14-6.13,20.11-6.48l-0.07-1.39c-7.23,0.36-14.93,3.02-20.78,6.7c-2.93,1.84-5.42,3.95-7.16,6.19
		c-1.74,2.23-2.76,4.64-2.65,7.05L17.28,51.37z M46.55,32.89c6.44-0.33,13.67,1.17,19.34,3.84c2.83,1.33,5.25,2.94,6.98,4.73
		c1.73,1.79,2.75,3.72,2.88,5.71l1.39-0.09c-0.15-2.42-1.38-4.65-3.26-6.59c-1.88-1.94-4.45-3.64-7.39-5.03
		c-5.87-2.76-13.33-4.31-20-3.97L46.55,32.89z M75.75,47.18c0.12,1.89-0.55,3.85-1.87,5.79c-1.32,1.94-3.25,3.83-5.58,5.54
		c-4.65,3.43-10.77,6.1-16.31,7.15l0.26,1.37c5.75-1.09,12.06-3.85,16.88-7.4c2.41-1.78,4.47-3.77,5.9-5.88
		c1.43-2.11,2.25-4.37,2.1-6.66L75.75,47.18z M52,65.66c-7.86,1.5-16.49,0.11-23.21-2.8c-3.36-1.45-6.2-3.28-8.23-5.27
		c-2.03-2-3.18-4.13-3.28-6.21l-1.39,0.07c0.12,2.55,1.52,4.99,3.69,7.14c2.18,2.15,5.18,4.06,8.65,5.56
		c6.93,3.01,15.85,4.45,24.02,2.89L52,65.66z M72.52,41.08c1.72,2.23,2.52,4.18,3.06,5.62c0.26,0.69,0.49,1.35,0.75,1.82
		C76.59,49,77,49.5,77.71,49.55l0.1-1.39c-0.02,0-0.03,0-0.06-0.03c-0.04-0.04-0.11-0.12-0.21-0.29c-0.2-0.36-0.38-0.88-0.67-1.64
		c-0.56-1.49-1.41-3.59-3.26-5.98L72.52,41.08z M77.71,49.55c0.54,0.04,1.05-0.22,1.48-0.52c0.44-0.32,0.87-0.77,1.29-1.29
		c0.84-1.05,1.67-2.48,2.32-4.03c0.65-1.55,1.14-3.24,1.28-4.82c0.14-1.56-0.07-3.11-0.94-4.26l-1.11,0.84
		c0.57,0.75,0.79,1.89,0.66,3.29c-0.12,1.39-0.56,2.94-1.18,4.4c-0.61,1.45-1.38,2.77-2.12,3.7c-0.37,0.47-0.72,0.82-1.03,1.04
		c-0.32,0.23-0.5,0.26-0.56,0.26L77.71,49.55z M83.14,34.63c-0.82-1.07-2.06-1.57-3.36-1.73c-1.3-0.15-2.74,0.03-4.07,0.4
		c-1.33,0.37-2.6,0.95-3.58,1.62c-0.49,0.34-0.92,0.71-1.25,1.11c-0.33,0.39-0.59,0.85-0.66,1.35l1.38,0.21
		c0.02-0.16,0.12-0.39,0.35-0.66c0.23-0.27,0.55-0.56,0.97-0.85c0.83-0.57,1.96-1.09,3.17-1.43c1.21-0.34,2.45-0.49,3.53-0.36
		c1.07,0.13,1.91,0.52,2.42,1.19L83.14,34.63z M70.21,37.38c-0.12,0.74,0.23,1.26,0.63,1.74c0.43,0.51,0.93,1,1.67,1.96l1.1-0.85
		c-0.74-0.96-1.39-1.62-1.71-2.01c-0.35-0.41-0.34-0.52-0.32-0.63L70.21,37.38z M73.49,54.25c-1.86,2.35-3.7,3.63-5.05,4.52
		c-0.66,0.43-1.29,0.82-1.71,1.2c-0.44,0.4-0.84,0.94-0.68,1.69l1.36-0.28c0-0.02-0.05-0.11,0.25-0.38c0.32-0.29,0.81-0.6,1.54-1.07
		c1.41-0.93,3.38-2.3,5.38-4.82L73.49,54.25z M66.05,61.65c0.11,0.56,0.49,1.03,0.93,1.41c0.45,0.4,1.04,0.77,1.7,1.11
		c1.33,0.68,3.07,1.27,4.87,1.65c1.8,0.38,3.72,0.55,5.41,0.36c1.67-0.18,3.25-0.73,4.21-1.93l-1.08-0.87
		c-0.62,0.77-1.76,1.25-3.28,1.42c-1.5,0.17-3.27,0.02-4.98-0.34c-1.71-0.36-3.32-0.91-4.53-1.53c-0.6-0.31-1.08-0.62-1.41-0.91
		c-0.35-0.31-0.46-0.53-0.48-0.64L66.05,61.65z M83.17,64.27c0.9-1.11,1.07-2.56,0.87-3.99c-0.2-1.43-0.79-2.94-1.56-4.29
		c-0.76-1.36-1.72-2.6-2.7-3.51c-0.49-0.45-0.99-0.84-1.49-1.1c-0.49-0.26-1.03-0.44-1.56-0.42l0.07,1.39
		c0.19-0.01,0.47,0.05,0.84,0.25c0.36,0.2,0.77,0.5,1.2,0.9c0.85,0.8,1.73,1.92,2.43,3.18c0.71,1.25,1.22,2.59,1.39,3.81
		c0.17,1.22-0.01,2.22-0.58,2.92L83.17,64.27z M76.74,50.95c-0.37,0.02-0.69,0.13-0.98,0.34c-0.27,0.19-0.48,0.45-0.67,0.72
		c-0.42,0.58-0.79,1.22-1.6,2.24l1.09,0.86c0.8-1.01,1.32-1.86,1.63-2.28c0.17-0.24,0.28-0.35,0.36-0.41
		c0.06-0.04,0.12-0.07,0.22-0.07L76.74,50.95z M77.46,38.53l-4.18,2.79l0.77,1.16l4.18-2.79L77.46,38.53z M78.34,60.9l-4.18-4.18
		l-0.98,0.98l4.18,4.18L78.34,60.9z M33.59,43.99c-0.1,0-0.28,0-0.4,0c-0.14,0-0.31,0.01-0.49,0.06c-0.43,0.12-0.73,0.41-0.94,0.84
		l1.26,0.6c0.04-0.09,0.07-0.11,0.07-0.11c-0.01,0.01-0.02,0.01-0.01,0.01c0.02,0,0.05-0.01,0.15-0.01c0.05,0,0.1,0,0.16,0
		c0.06,0,0.13,0,0.21,0V43.99z M31.75,44.89c-0.35,0.73-0.55,1.36-0.55,2.25h1.39c0-0.62,0.13-1.04,0.42-1.65L31.75,44.89z
		 M31.2,47.14c0,0.48,0.27,0.85,0.49,1.07c0.23,0.23,0.5,0.41,0.69,0.52l0.71-1.2c-0.15-0.09-0.29-0.19-0.4-0.29
		c-0.11-0.12-0.09-0.15-0.09-0.1H31.2z M32.38,48.73c0.48,0.28,1.05,0.47,1.63,0.5l0.08-1.39c-0.34-0.02-0.7-0.13-1.01-0.32
		L32.38,48.73z M34.01,49.24c0.54,0.03,1.12-0.13,1.6-0.43c0.48-0.29,0.92-0.77,1.07-1.41l-1.36-0.3c-0.04,0.17-0.18,0.37-0.44,0.53
		c-0.26,0.16-0.56,0.23-0.79,0.22L34.01,49.24z M36.67,47.4c0.12-0.53,0.12-1.17-0.08-1.75l-1.32,0.46c0.1,0.28,0.11,0.65,0.03,0.99
		L36.67,47.4z M36.6,45.65c-0.1-0.28-0.27-0.5-0.4-0.65c-0.07-0.08-0.14-0.15-0.2-0.21c-0.06-0.06-0.11-0.11-0.15-0.15l-1.04,0.93
		c0.06,0.07,0.13,0.14,0.18,0.19c0.06,0.06,0.11,0.11,0.15,0.16c0.05,0.05,0.08,0.09,0.1,0.13c0.01,0.02,0.02,0.03,0.02,0.04
		s0.01,0.01,0.01,0.01L36.6,45.65z M35.85,44.64c-0.36-0.4-0.82-0.47-1.09-0.51c-0.18-0.02-0.23-0.02-0.35-0.04
		c-0.09-0.01-0.12-0.03-0.13-0.03l-0.62,1.25c0.19,0.1,0.39,0.14,0.54,0.16c0.12,0.02,0.32,0.04,0.39,0.05
		c0.11,0.01,0.16,0.03,0.2,0.04c0.02,0.01,0.02,0.01,0.03,0.01c0,0,0,0,0,0L35.85,44.64z"/>
</g>
</svg>
