<?xml version="1.0" encoding="utf-8"?>
<!-- Generator: Adobe Illustrator 28.2.0, SVG Export Plug-In . SVG Version: 6.00 Build 0)  -->
<svg version="1.1" id="Layer_1" xmlns="http://www.w3.org/2000/svg" xmlns:xlink="http://www.w3.org/1999/xlink" x="0px" y="0px"
	 viewBox="0 0 100 100" style="enable-background:new 0 0 100 100;" xml:space="preserve">
<style type="text/css">
	.st0{fill:#040639;}
	.st1{fill:none;stroke:#FFFFFF;stroke-miterlimit:10;}
	.st2{fill:none;stroke:#FFFFFF;stroke-linecap:round;}
</style>
<path class="st0" d="M-249-346h60c3.87,0,7,3.13,7,7v60c0,3.87-3.13,7-7,7h-60c-3.87,0-7-3.13-7-7v-60
	C-256-342.87-252.87-346-249-346z"/>
<path class="st1" d="M-229.52-316.99c-1.54-2.46-2.04-6.05-2.16-6.9c-0.54-4.17,2.54-8.93,7.51-10.66
	c6.48-2.24,12.2,4.34,13.91,8.19c0.03,0.05,0.08,0.18,0.14,0.33c0.94,2.24,1.72,4.08,1.48,5.84c-0.26,1.84-1.62,3.21-1.62,3.21
	s0.18-0.33,0.34-0.63c-0.42,0.86-0.86,1.71-1.28,2.58c-1.03,1.65-1.24,3.1-1.28,3.86c0,0-0.11,2.54,1.51,5.58
	c0.05,0.1,0.08,0.13,0.17,0.31c0.24,0.45,0.69,1.31,1.17,2.43c0.14,0.33,0.29,0.7,0.43,1.08c0.6,1.57,0.91,2.36,1.07,3.52
	c0.51,3.61-0.75,6.38-1.07,7.02c-1.39,2.89-3.54,4.23-4.29,4.69c-3.68,2.24-7.35,1.44-8.56,1.17c-3.2-0.71-5.39-2.5-6.42-3.52
	c-1.24-1.21-2.6-2.52-3.22-4.69c-1.17-4.17,1.21-8.76,2.14-10.54c0.89-1.71,1.67-2.6,2.14-4.69c0.2-0.93,0.59-2.03,0-3.98
	c-0.47-1.55-1.17-2.68-2.14-4.22L-229.52-316.99z"/>
<path class="st2" d="M-231-300.68c9.66,2.53,14.5,2.48,22-0.92 M-231-292.37c9.66,2.53,14.5,2.48,22-0.92 M-226.42-309.92
	c10.08,0.92,5.5,0.92,13.75-0.92 M-231-326.54c9.66,2.53,12.67,2.48,20.17-0.92 M-231-319.15c9.66,2.53,14.5,2.48,22-0.92
	 M-216.33-333c-2.29,18.17-0.35,27.55,2.75,46.17c-4.6,2.39-7.08,2.49-11,0c2.91-19.3,2.03-27.99-0.92-46.17"/>
<path class="st0" d="M9.46,0.07h81.08c5.22,0,9.46,4.24,9.46,9.46v81.08c0,5.22-4.24,9.46-9.46,9.46H9.46
	c-5.22,0-9.46-4.24-9.46-9.46V9.53C0,4.3,4.24,0.07,9.46,0.07z"/>
<path class="st1" d="M51.35,86.55v-47.3"/>
<path class="st1" d="M61.74,65.26c-1.34-1.13-6.34,0.74-8.86,3.77c-0.48,0.56-2.07,2.48-1.34,3.41c0.91,1.15,5.35,0.66,7.98-1.5
	c2.11-1.74,3.33-4.76,2.24-5.69L61.74,65.26z"/>
<path class="st1" d="M61.7,51.96c-1.41-1.96-6.43,1.63-8.89,7.16c-0.46,1.03-2.02,4.54-1.24,6.17c0.97,2.02,5.46,0.92,8.07-3.05
	C61.73,59.03,62.85,53.55,61.7,51.96z"/>
<path class="st1" d="M60.49,41.21c-1.12-1.96-5.47,1.02-7.74,6.05c-0.42,0.94-1.86,4.14-1.24,5.75c0.76,2,4.58,1.32,6.91-2.22
	c1.87-2.87,2.99-7.97,2.07-9.56V41.21z"/>
<path class="st1" d="M59.16,30.37c-0.99-1.91-4.73,1.17-6.64,6.2c-0.35,0.93-1.57,4.13-1.03,5.7c0.67,1.95,3.98,1.19,5.96-2.39
	C59.04,36.99,59.97,31.92,59.16,30.37z"/>
<path class="st1" d="M52.71,33.83c1.6,0.33,4.68-4.06,5.25-8.21c0.1-0.77,0.47-3.39-0.56-3.87c-1.27-0.57-4.56,2.24-5.62,5.63
	C50.93,30.13,51.41,33.57,52.71,33.83z"/>
<path class="st1" d="M51.07,71.09c1.43-1.32-2.81-5.16-8.27-6.72c-1.01-0.29-4.47-1.28-5.75-0.49c-1.61,0.98,0.33,4.59,4.43,6.39
	C44.78,71.72,49.91,72.17,51.07,71.09z"/>
<path class="st1" d="M51.13,63.73c1.4-2.23-3.97-8-10.32-10.05c-1.18-0.38-5.22-1.66-6.55-0.31c-1.64,1.7,1.09,7.32,5.96,9.84
	c3.93,2.04,9.75,2.33,10.89,0.5L51.13,63.73z"/>
<path class="st1" d="M51.18,52.49c1.24-2.67-4.33-9.05-10.63-11.06c-1.16-0.37-5.18-1.65-6.38,0c-1.49,2.06,1.49,8.39,6.38,11.06
	C44.49,54.65,50.16,54.67,51.18,52.49z"/>
<path class="st1" d="M51.14,42.16c1.36-2.03-4.07-7.14-10.41-8.89c-1.17-0.33-5.19-1.44-6.49-0.19c-1.6,1.54,1.21,6.56,6.08,8.77
	c3.94,1.79,9.7,1.97,10.82,0.33V42.16z"/>
<path class="st1" d="M50.07,35.04c2.53-0.85,1.23-5.6-3.12-8.56c-0.81-0.54-3.56-2.42-5.5-2.04c-2.42,0.47-3.32,4.39-0.55,7.2
	c2.22,2.26,7.1,4.1,9.17,3.41V35.04z"/>
<path class="st1" d="M50.9,28.3c1.55-0.85,2.46-6.13,1.23-9.54c-0.22-0.63-1.01-2.79-2.11-2.44c-1.38,0.44-3.12,4.73-2.64,7.92
	c0.39,2.58,2.25,4.76,3.53,4.07L50.9,28.3z"/>
</svg>
