<?xml version="1.0" encoding="utf-8"?>
<!-- Generator: Adobe Illustrator 28.2.0, SVG Export Plug-In . SVG Version: 6.00 Build 0)  -->
<svg version="1.1" xmlns="http://www.w3.org/2000/svg" xmlns:xlink="http://www.w3.org/1999/xlink" x="0px" y="0px"
	 viewBox="0 0 100 100" style="enable-background:new 0 0 100 100;" xml:space="preserve">
<style type="text/css">
	.st0{fill:#040639;}
	.st1{fill:none;stroke:#FFFFFF;stroke-miterlimit:10;}
	.st2{fill:none;stroke:#FFFFFF;stroke-linecap:round;}
</style>
<g id="Layer_2">
</g>
<g id="Layer_1">
	<path class="st0" d="M-249-346h60c3.87,0,7,3.13,7,7v60c0,3.87-3.13,7-7,7h-60c-3.87,0-7-3.13-7-7v-60
		C-256-342.87-252.87-346-249-346z"/>
	<path class="st1" d="M-229.52-316.99c-1.54-2.46-2.04-6.05-2.16-6.9c-0.54-4.17,2.54-8.93,7.51-10.66
		c6.48-2.24,12.2,4.34,13.91,8.19c0.03,0.05,0.08,0.18,0.14,0.33c0.94,2.24,1.72,4.08,1.48,5.84c-0.26,1.84-1.62,3.21-1.62,3.21
		s0.18-0.33,0.34-0.63c-0.42,0.86-0.86,1.71-1.28,2.58c-1.03,1.65-1.24,3.1-1.28,3.86c0,0-0.11,2.54,1.51,5.58
		c0.05,0.1,0.08,0.13,0.17,0.31c0.24,0.45,0.69,1.31,1.17,2.43c0.14,0.33,0.29,0.7,0.43,1.08c0.6,1.57,0.91,2.36,1.07,3.52
		c0.51,3.61-0.75,6.38-1.07,7.02c-1.39,2.89-3.54,4.23-4.29,4.69c-3.68,2.24-7.35,1.44-8.56,1.17c-3.2-0.71-5.39-2.5-6.42-3.52
		c-1.24-1.21-2.6-2.52-3.22-4.69c-1.17-4.17,1.21-8.76,2.14-10.54c0.89-1.71,1.67-2.6,2.14-4.69c0.2-0.93,0.59-2.03,0-3.98
		c-0.47-1.55-1.17-2.68-2.14-4.22L-229.52-316.99z"/>
	<path class="st2" d="M-231-300.68c9.66,2.53,14.5,2.48,22-0.92 M-231-292.37c9.66,2.53,14.5,2.48,22-0.92 M-226.42-309.92
		c10.08,0.92,5.5,0.92,13.75-0.92 M-231-326.54c9.66,2.53,12.67,2.48,20.17-0.92 M-231-319.15c9.66,2.53,14.5,2.48,22-0.92
		 M-216.33-333c-2.29,18.17-0.35,27.55,2.75,46.17c-4.6,2.39-7.08,2.49-11,0c2.91-19.3,2.03-27.99-0.92-46.17"/>
	<path class="st0" d="M9.46,0h81.08C95.76,0,100,4.24,100,9.46v81.08c0,5.22-4.24,9.46-9.46,9.46H9.46C4.24,100,0,95.76,0,90.54
		V9.46C0,4.24,4.24,0,9.46,0z"/>
	<path class="st1" d="M32.49,81.08h36.6c1.41-12.92,2.8-25.81,4.21-38.73c0.8-7.36,1.59-14.72,2.39-22.08H24.32
		c1.2,8.93,2.39,17.86,3.59,26.76C29.44,58.38,30.96,69.73,32.49,81.08z"/>
	<path class="st1" d="M28.38,44.59c6.61,3.35,10.63,3.03,13.1,2.02c4.15-1.7,5.22-5.88,8.73-6.06c2.66-0.14,5,2.12,6.55,4.04"/>
	<path class="st1" d="M56.76,43.23c0.85,0.78,2.21,1.73,3.75,1.23c2.5-0.78,3.15-4.6,5.65-6.67c1.45-1.2,3.91-2.12,8.16-0.16"/>
</g>
</svg>
