<?xml version="1.0" encoding="utf-8"?>
<!-- Generator: Adobe Illustrator 28.2.0, SVG Export Plug-In . SVG Version: 6.00 Build 0)  -->
<svg version="1.1" id="Layer_1" xmlns="http://www.w3.org/2000/svg" xmlns:xlink="http://www.w3.org/1999/xlink" x="0px" y="0px"
	 viewBox="0 0 100 100" style="enable-background:new 0 0 100 100;" xml:space="preserve">
<style type="text/css">
	.st0{fill:#040639;}
	.st1{fill:none;stroke:#FFFFFF;stroke-miterlimit:10;}
	.st2{fill:none;stroke:#FFFFFF;stroke-linecap:round;}
</style>
<path class="st0" d="M-249-346h60c3.87,0,7,3.13,7,7v60c0,3.87-3.13,7-7,7h-60c-3.87,0-7-3.13-7-7v-60
	C-256-342.87-252.87-346-249-346z"/>
<path class="st1" d="M-229.52-316.99c-1.54-2.46-2.04-6.05-2.16-6.9c-0.54-4.17,2.54-8.93,7.51-10.66
	c6.48-2.24,12.2,4.34,13.91,8.19c0.03,0.05,0.08,0.18,0.14,0.33c0.94,2.24,1.72,4.08,1.48,5.84c-0.26,1.84-1.62,3.21-1.62,3.21
	s0.18-0.33,0.34-0.63c-0.42,0.86-0.86,1.71-1.28,2.58c-1.03,1.65-1.24,3.1-1.28,3.86c0,0-0.11,2.54,1.51,5.58
	c0.05,0.1,0.08,0.13,0.17,0.31c0.24,0.45,0.69,1.31,1.17,2.43c0.14,0.33,0.29,0.7,0.43,1.08c0.6,1.57,0.91,2.36,1.07,3.52
	c0.51,3.61-0.75,6.38-1.07,7.02c-1.39,2.89-3.54,4.23-4.29,4.69c-3.68,2.24-7.35,1.44-8.56,1.17c-3.2-0.71-5.39-2.5-6.42-3.52
	c-1.24-1.21-2.6-2.52-3.22-4.69c-1.17-4.17,1.21-8.76,2.14-10.54c0.89-1.71,1.67-2.6,2.14-4.69c0.2-0.93,0.59-2.03,0-3.98
	c-0.47-1.55-1.17-2.68-2.14-4.22L-229.52-316.99z"/>
<path class="st2" d="M-231-300.68c9.66,2.53,14.5,2.48,22-0.92 M-231-292.37c9.66,2.53,14.5,2.48,22-0.92 M-226.42-309.92
	c10.08,0.92,5.5,0.92,13.75-0.92 M-231-326.54c9.66,2.53,12.67,2.48,20.17-0.92 M-231-319.15c9.66,2.53,14.5,2.48,22-0.92
	 M-216.33-333c-2.29,18.17-0.35,27.55,2.75,46.17c-4.6,2.39-7.08,2.49-11,0c2.91-19.3,2.03-27.99-0.92-46.17"/>
<path class="st1" d="M46.39,28.24c1.94-1.03,3.08-7.5,1.54-11.66c-0.28-0.77-1.26-3.42-2.64-2.98c-1.72,0.54-3.9,5.78-3.29,9.69
	c0.48,3.15,2.81,5.81,4.41,4.97L46.39,28.24z"/>
<path class="st0" d="M9.46,0.04h81.08c5.22,0,9.46,4.24,9.46,9.46v81.08c0,5.22-4.24,9.46-9.46,9.46H9.46
	C4.24,100.04,0,95.8,0,90.58V9.5C0,4.27,4.24,0.04,9.46,0.04z"/>
<path class="st1" d="M35.78,39.24c-2.09-3.33-2.76-8.18-2.91-9.33c-0.72-5.64,3.43-12.07,10.14-14.4
	c8.76-3.03,16.49,5.87,18.8,11.07c0.03,0.07,0.1,0.24,0.19,0.45c1.28,3.03,2.33,5.52,2,7.89c-0.35,2.49-2.19,4.33-2.19,4.33
	s0.24-0.45,0.47-0.85c-0.57,1.17-1.16,2.32-1.72,3.48c-1.4,2.23-1.67,4.2-1.72,5.22c0,0-0.16,3.43,2.04,7.54
	c0.07,0.14,0.1,0.17,0.22,0.42c0.33,0.61,0.93,1.78,1.59,3.29c0.19,0.45,0.4,0.94,0.59,1.46c0.81,2.12,1.22,3.19,1.45,4.75
	c0.69,4.87-1.02,8.62-1.45,9.49c-1.88,3.9-4.78,5.71-5.8,6.34c-4.97,3.03-9.93,1.95-11.57,1.58c-4.33-0.96-7.28-3.38-8.68-4.75
	c-1.67-1.64-3.52-3.41-4.35-6.34c-1.59-5.64,1.64-11.84,2.9-14.24c1.21-2.32,2.26-3.52,2.9-6.34c0.28-1.25,0.79-2.74,0-5.38
	c-0.64-2.09-1.59-3.62-2.9-5.71L35.78,39.24z"/>
<path class="st2" d="M33.78,61.28c13.05,3.42,19.6,3.35,29.73-1.25 M33.78,72.51c13.05,3.42,19.6,3.35,29.73-1.25 M39.98,48.8
	c13.63,1.25,7.43,1.25,18.58-1.25 M33.78,26.34c13.05,3.42,17.12,3.35,27.25-1.25 M33.78,36.32c13.05,3.42,19.6,3.35,29.73-1.25
	 M53.6,17.6C50.51,42.16,53.12,54.83,57.32,80c-6.22,3.22-9.56,3.37-14.86,0c3.94-26.09,2.74-37.82-1.24-62.39"/>
</svg>
