<?xml version="1.0" encoding="utf-8"?>
<!-- Generator: Adobe Illustrator 28.2.0, SVG Export Plug-In . SVG Version: 6.00 Build 0)  -->
<svg version="1.1" xmlns="http://www.w3.org/2000/svg" xmlns:xlink="http://www.w3.org/1999/xlink" x="0px" y="0px"
	 viewBox="0 0 100 100" style="enable-background:new 0 0 100 100;" xml:space="preserve">
<style type="text/css">
	.st0{fill:#040639;}
	.st1{fill:none;stroke:#FFFFFF;stroke-miterlimit:10;}
	.st2{fill:none;stroke:#FFFFFF;stroke-linecap:round;}
</style>
<g id="Layer_2">
</g>
<g id="Layer_1">
	<path class="st0" d="M-249-346h60c3.87,0,7,3.13,7,7v60c0,3.87-3.13,7-7,7h-60c-3.87,0-7-3.13-7-7v-60
		C-256-342.87-252.87-346-249-346z"/>
	<path class="st1" d="M-229.52-316.99c-1.54-2.46-2.04-6.05-2.16-6.9c-0.54-4.17,2.54-8.93,7.51-10.66
		c6.48-2.24,12.2,4.34,13.91,8.19c0.03,0.05,0.08,0.18,0.14,0.33c0.94,2.24,1.72,4.08,1.48,5.84c-0.26,1.84-1.62,3.21-1.62,3.21
		s0.18-0.33,0.34-0.63c-0.42,0.86-0.86,1.71-1.28,2.58c-1.03,1.65-1.24,3.1-1.28,3.86c0,0-0.11,2.54,1.51,5.58
		c0.05,0.1,0.08,0.13,0.17,0.31c0.24,0.45,0.69,1.31,1.17,2.43c0.14,0.33,0.29,0.7,0.43,1.08c0.6,1.57,0.91,2.36,1.07,3.52
		c0.51,3.61-0.75,6.38-1.07,7.02c-1.39,2.89-3.54,4.23-4.29,4.69c-3.68,2.24-7.35,1.44-8.56,1.17c-3.2-0.71-5.39-2.5-6.42-3.52
		c-1.24-1.21-2.6-2.52-3.22-4.69c-1.17-4.17,1.21-8.76,2.14-10.54c0.89-1.71,1.67-2.6,2.14-4.69c0.2-0.93,0.59-2.03,0-3.98
		c-0.47-1.55-1.17-2.68-2.14-4.22L-229.52-316.99z"/>
	<path class="st2" d="M-231-300.68c9.66,2.53,14.5,2.48,22-0.92 M-231-292.37c9.66,2.53,14.5,2.48,22-0.92 M-226.42-309.92
		c10.08,0.92,5.5,0.92,13.75-0.92 M-231-326.54c9.66,2.53,12.67,2.48,20.17-0.92 M-231-319.15c9.66,2.53,14.5,2.48,22-0.92
		 M-216.33-333c-2.29,18.17-0.35,27.55,2.75,46.17c-4.6,2.39-7.08,2.49-11,0c2.91-19.3,2.03-27.99-0.92-46.17"/>
	<path class="st0" d="M9.46,0h81.08C95.76,0,100,4.24,100,9.46v81.08c0,5.22-4.24,9.46-9.46,9.46H9.46C4.24,100,0,95.76,0,90.54
		V9.46C0,4.24,4.24,0,9.46,0z"/>
	<path class="st1" d="M64.16,45.29c0,0,0.29-0.15,0.61-0.25c1.3-0.43,15.33,3.27,17.18,7.48c0.04,0.1,0.08,0.19,0.08,0.19
		c0.22,0.54,0.53,1.74,0.35,4.6c-0.02,0.35-0.06,0.93-0.1,1.35c-0.2,1.86-1.43,7.56-3.56,11.43c-2.52,4.56-9.79,13.75-20.18,13.71
		c-13.11-0.04-22.78-13.44-25.69-17.48c-7.96-11.06-10.71-25.26-6.72-26.94c2.79-1.16,9.14,3.62,12.42,7.06
		c4.62,4.82,4.05,7.89,9.14,12.22c1.89,1.59,6.35,5.38,9.51,4.58c1.53-0.39,2.12-2.09,2.85-3.71c2.32-5.14,2.32-13.05,3.24-13.71
		c0.41-0.29,0.84-0.5,0.84-0.5L64.16,45.29z"/>
	<path class="st1" d="M30.8,24.41c1.15,4.95-1.39,12.09-3.85,12.07c-2.09-0.02-4.59-5.31-3.85-10.06c0.56-3.6,3.01-6.82,5.13-6.04
		C29.99,21.03,30.73,24.09,30.8,24.41z"/>
	<path class="st1" d="M20.52,31.56c2.67,3.06,3.24,9.19,1.32,10.18c-1.64,0.85-5.51-1.88-6.63-5.57c-0.85-2.79-0.08-6.08,1.86-6.41
		C18.67,29.49,20.36,31.37,20.52,31.56z"/>
	<path class="st1" d="M62.16,52.7l18.92,9.46"/>
	<path class="st1" d="M58.11,63.51c2.38,4.53,7.78,7.18,13.49,6.7c5.13-0.43,7.24-1.88,8.13-2.65"/>
	<path class="st1" d="M50.09,60.81c-2.72,6.2-1.5,13.17,2.94,17.46c3.99,3.86,8.44,4.8,9.8,4.84"/>
	<path class="st1" d="M43.24,54.05c-3.25,0.3-5.41,4.25-5.41,9.75c0,4.96,0.88,8.69,1.35,9.84"/>
	<path class="st1" d="M36.49,44.59c-4.33,0.36-7.95,2.78-9.08,6.05c-1.02,2.93-0.76,4.78-0.38,5.43"/>
</g>
</svg>
